<svg width="28" height="28" viewBox="0 0 28 28" fill="none" xmlns="http://www.w3.org/2000/svg">
<g clip-path="url(#clip0_794_161)">
<path d="M20.9754 27.2522C21.0664 27.5613 20.8903 27.8845 20.5799 27.9755C20.5251 27.9918 20.4703 28 20.4154 28C20.1623 28 19.9301 27.8355 19.8566 27.5812C19.1204 25.0798 16.7124 23.3333 13.9988 23.3333C11.2851 23.3333 8.87709 25.0798 8.14092 27.5812C8.05109 27.8915 7.72442 28.0665 7.41759 27.9767C7.10725 27.8857 6.93109 27.5625 7.02209 27.2533C7.90176 24.2585 10.7706 22.1678 13.9976 22.1678C17.2246 22.1678 20.0946 24.2585 20.9731 27.2533L20.9754 27.2522ZM27.9754 16.7522C27.0958 13.7573 24.2269 11.6667 20.9999 11.6667C20.6779 11.6667 20.4166 11.928 20.4166 12.25C20.4166 12.572 20.6779 12.8333 20.9999 12.8333C23.7124 12.8333 26.1216 14.5798 26.8578 17.0812C26.9313 17.3367 27.1646 17.5 27.4166 17.5C27.4714 17.5 27.5263 17.4918 27.5811 17.4755C27.8914 17.3845 28.0664 17.0613 27.9754 16.7522ZM7.58326 12.25C7.58326 11.928 7.32192 11.6667 6.99992 11.6667C3.77176 11.6667 0.902922 13.7573 0.0244224 16.7522C-0.0665776 17.0613 0.109589 17.3845 0.419922 17.4755C0.474756 17.4918 0.529589 17.5 0.584422 17.5C0.837589 17.5 1.06976 17.3355 1.14326 17.0812C1.87942 14.5798 4.28742 12.8333 7.00109 12.8333C7.32309 12.8333 7.58326 12.572 7.58326 12.25ZM13.9999 10.5C16.5736 10.5 18.6666 12.593 18.6666 15.1667C18.6666 17.7403 16.5736 19.8333 13.9999 19.8333C11.4263 19.8333 9.33326 17.7403 9.33326 15.1667C9.33326 12.593 11.4263 10.5 13.9999 10.5ZM10.4999 15.1667C10.4999 17.0963 12.0703 18.6667 13.9999 18.6667C15.9296 18.6667 17.4999 17.0963 17.4999 15.1667C17.4999 13.237 15.9296 11.6667 13.9999 11.6667C12.0703 11.6667 10.4999 13.237 10.4999 15.1667ZM16.3333 4.66667C16.3333 2.093 18.4263 0 20.9999 0C23.5736 0 25.6666 2.093 25.6666 4.66667C25.6666 7.24033 23.5736 9.33333 20.9999 9.33333C18.4263 9.33333 16.3333 7.24033 16.3333 4.66667ZM17.4999 4.66667C17.4999 6.59633 19.0703 8.16667 20.9999 8.16667C22.9296 8.16667 24.4999 6.59633 24.4999 4.66667C24.4999 2.737 22.9296 1.16667 20.9999 1.16667C19.0703 1.16667 17.4999 2.737 17.4999 4.66667ZM2.33326 4.66667C2.33326 2.093 4.42626 0 6.99992 0C9.57359 0 11.6666 2.093 11.6666 4.66667C11.6666 7.24033 9.57359 9.33333 6.99992 9.33333C4.42626 9.33333 2.33326 7.24033 2.33326 4.66667ZM3.49992 4.66667C3.49992 6.59633 5.07026 8.16667 6.99992 8.16667C8.92959 8.16667 10.4999 6.59633 10.4999 4.66667C10.4999 2.737 8.92959 1.16667 6.99992 1.16667C5.07026 1.16667 3.49992 2.737 3.49992 4.66667Z" fill="#272A3B"/>
</g>
<defs>
<clipPath id="clip0_794_161">
<rect width="28" height="28" fill="white"/>
</clipPath>
</defs>
</svg>
