<svg width="24" height="14" viewBox="0 0 24 14" fill="none" xmlns="http://www.w3.org/2000/svg">
<path d="M17.523 10.842L17.5239 10.842C18.3512 10.8405 19.022 10.1703 19.022 9.342C19.022 8.51321 18.3495 7.843 17.522 7.843C16.6932 7.843 16.023 8.51552 16.023 9.343C16.023 10.1718 16.6955 10.842 17.523 10.842ZM6.47699 10.842L6.4779 10.842C7.30516 10.8405 7.97599 10.1703 7.97599 9.342C7.97599 8.51321 7.30348 7.843 6.47599 7.843C5.6472 7.843 4.97699 8.51551 4.97699 9.343C4.97699 10.1718 5.6495 10.842 6.47699 10.842ZM17.6422 4.76127C20.7738 6.46406 22.9619 9.56595 23.4429 13.262H0.555214C1.03704 9.56591 3.22519 6.46404 6.35684 4.76127L6.72185 4.5628L7.07034 4.40399C8.55211 3.72871 10.2184 3.351 12 3.351C13.7816 3.351 15.4478 3.72872 16.9283 4.40482L17.2924 4.57109L17.6422 4.76127ZM4.55404 0.612063C4.55413 0.61222 4.55422 0.612376 4.55431 0.612533L4.55404 0.612063Z" stroke="black" stroke-opacity="0.5"/>
</svg>
