<svg width="24" height="24" viewBox="0 0 24 24" fill="none" xmlns="http://www.w3.org/2000/svg">
<g clip-path="url(#clip0_46_261)">
<path d="M18.046 12.7566L18.046 12.7566L18.046 12.7635C18.048 14.9252 19.256 16.8897 21.1504 17.8758C20.7964 18.8905 20.3019 19.8518 19.6814 20.7319L19.6812 20.7318L19.6743 20.7421C19.1782 21.4843 18.7025 22.1658 18.164 22.6685C17.6358 23.1617 17.0802 23.4512 16.4218 23.4621L16.4184 23.4621C15.7467 23.4777 15.3055 23.2899 14.7509 23.0538L14.7346 23.0468C14.1586 22.8016 13.4907 22.524 12.472 22.524C11.4519 22.524 10.7758 22.781 10.1882 23.0265C10.1497 23.0426 10.1118 23.0586 10.0743 23.0743C9.54972 23.2946 9.12319 23.4738 8.5076 23.4994C7.91825 23.5205 7.35402 23.2275 6.77731 22.6862C6.19996 22.1443 5.67435 21.4145 5.16014 20.6795C4.17973 19.2465 3.30003 17.2124 2.92653 15.0938C2.55218 12.9705 2.6961 10.8242 3.68198 9.11705L3.68203 9.11708L3.68591 9.11011C4.60093 7.46563 6.3118 6.42217 8.19217 6.35984C8.86374 6.3468 9.53418 6.57417 10.21 6.84105C10.2936 6.87406 10.3784 6.90815 10.4637 6.94239C10.7087 7.0408 10.9568 7.14047 11.1868 7.21942C11.4967 7.32579 11.8311 7.416 12.156 7.416C12.4868 7.416 12.8479 7.3059 13.1801 7.18608C13.3622 7.12038 13.576 7.03573 13.7928 6.94989C13.9598 6.88378 14.1286 6.81696 14.286 6.75756C15.0727 6.46072 15.8901 6.22224 16.6919 6.30628L16.7101 6.30818L16.7284 6.30876C18.16 6.35352 19.4984 6.99924 20.4223 8.07333C18.9556 9.17503 18.0698 10.9014 18.046 12.7566ZM15.1507 3.52712L15.1507 3.52707L15.1454 3.5336C14.4762 4.36542 13.5084 4.89185 12.4603 5.00926C12.5042 3.96123 12.905 2.95447 13.6037 2.15896L13.6037 2.15887C14.3059 1.35906 15.2443 0.809695 16.2757 0.584384C16.2373 1.65732 15.8444 2.69372 15.1507 3.52712Z" stroke="black" stroke-opacity="0.5"/>
</g>
<defs>
<clipPath id="clip0_46_261">
<rect width="24" height="24" fill="white"/>
</clipPath>
</defs>
</svg>
