<svg width="28" height="28" viewBox="0 0 28 28" fill="none" xmlns="http://www.w3.org/2000/svg">
<path d="M22.75 4.66667H20.9405C20.6465 2.04867 18.445 0 15.75 0H12.25C9.555 0 7.3535 2.04867 7.0595 4.66667H5.25C2.3555 4.66667 0 7.02217 0 9.91667V22.75C0 25.6445 2.3555 28 5.25 28H22.75C25.6445 28 28 25.6445 28 22.75V9.91667C28 7.02217 25.6445 4.66667 22.75 4.66667ZM12.25 1.16667H15.75C17.801 1.16667 19.488 2.69267 19.7738 4.66667H8.22617C8.512 2.69267 10.199 1.16667 12.25 1.16667ZM26.8333 22.75C26.8333 25.0017 25.0017 26.8333 22.75 26.8333H21V8.75C21 8.428 20.7387 8.16667 20.4167 8.16667C20.0947 8.16667 19.8333 8.428 19.8333 8.75V26.8333H8.16667V8.75C8.16667 8.428 7.90533 8.16667 7.58333 8.16667C7.26133 8.16667 7 8.428 7 8.75V26.8333H5.25C2.99833 26.8333 1.16667 25.0017 1.16667 22.75V9.91667C1.16667 7.665 2.99833 5.83333 5.25 5.83333H22.75C25.0017 5.83333 26.8333 7.665 26.8333 9.91667V22.75Z" fill="#272A3B"/>
</svg>
