<svg width="44" height="44" viewBox="0 0 44 44" fill="none" xmlns="http://www.w3.org/2000/svg">
<path d="M31.1667 18.3334H25.6667C22.6343 18.3334 20.1667 20.801 20.1667 23.8334V25.6667H17.8237C18.139 25.1259 18.3333 24.5044 18.3333 23.8334C18.3333 21.8112 16.6888 20.1667 14.6667 20.1667C12.6445 20.1667 11 21.8112 11 23.8334C11 24.5044 11.1943 25.1259 11.5097 25.6667H9.16667V19.25C9.16667 18.744 8.756 18.3334 8.25 18.3334C7.744 18.3334 7.33333 18.744 7.33333 19.25V43.0834C7.33333 43.5894 7.744 44 8.25 44C8.756 44 9.16667 43.5894 9.16667 43.0834V40.3334H34.8333V43.0834C34.8333 43.5894 35.244 44 35.75 44C36.256 44 36.6667 43.5894 36.6667 43.0834V23.8334C36.6667 20.801 34.199 18.3334 31.1667 18.3334ZM22 23.8334C22 21.8112 23.6445 20.1667 25.6667 20.1667H31.1667C33.1888 20.1667 34.8333 21.8112 34.8333 23.8334V25.6667H22V23.8334ZM12.8333 23.8334C12.8333 22.8232 13.6565 22 14.6667 22C15.6768 22 16.5 22.8232 16.5 23.8334C16.5 24.8435 15.6768 25.6667 14.6667 25.6667C13.6565 25.6667 12.8333 24.8435 12.8333 23.8334ZM9.16667 27.5H34.8333V31.1667H26.5833C23.551 31.1667 21.0833 33.6344 21.0833 36.6667V38.5H17.8237C18.139 37.9592 18.3333 37.3377 18.3333 36.6667C18.3333 34.6445 16.6888 33 14.6667 33C12.6445 33 11 34.6445 11 36.6667C11 37.3377 11.1943 37.9592 11.5097 38.5H9.16667V27.5ZM12.8333 36.6667C12.8333 35.6565 13.6565 34.8334 14.6667 34.8334C15.6768 34.8334 16.5 35.6565 16.5 36.6667C16.5 37.6769 15.6768 38.5 14.6667 38.5C13.6565 38.5 12.8333 37.6769 12.8333 36.6667ZM22.9167 38.5V36.6667C22.9167 34.6445 24.5612 33 26.5833 33H34.8333V38.5H22.9167ZM44 17.5285V43.0834C44 43.5894 43.5893 44 43.0833 44C42.5773 44 42.1667 43.5894 42.1667 43.0834V17.5285C42.1667 15.3909 41.1107 13.4035 39.3397 12.21L25.5897 2.93152C23.4098 1.45936 20.592 1.45936 18.4103 2.93152L4.66033 12.21C2.88933 13.4054 1.83333 15.3927 1.83333 17.5285V43.0834C1.83333 43.5894 1.42267 44 0.916667 44C0.410667 44 0 43.5894 0 43.0834V17.5285C0 14.7822 1.3585 12.2247 3.6355 10.6902L17.3855 1.41169C20.1905 -0.478478 23.8113 -0.476645 26.6145 1.41169L40.3645 10.6902C42.6415 12.2247 44 14.7822 44 17.5285Z" fill="#272A3B"/>
</svg>
