<svg width="93" height="51" viewBox="0 0 93 51" fill="none" xmlns="http://www.w3.org/2000/svg">
<g clip-path="url(#clip0_156_51)">
<path d="M91.3918 23.9167H92.3085V16.5833C92.3085 14.0552 90.2533 12 87.7251 12H52.8918C50.3636 12 48.3085 14.0552 48.3085 16.5833V40.4167C48.3085 42.9448 50.3636 45 52.8918 45H87.7251C90.2533 45 92.3085 42.9448 92.3085 40.4167V33.0833H91.3918C88.8636 33.0833 86.8085 31.0282 86.8085 28.5C86.8085 25.9718 88.8636 23.9167 91.3918 23.9167ZM84.9751 28.5C84.9751 31.7267 87.3695 34.4052 90.4751 34.8525V40.4167C90.4751 41.9328 89.2413 43.1667 87.7251 43.1667H52.8918C51.3756 43.1667 50.1418 41.9328 50.1418 40.4167V16.5833C50.1418 15.0672 51.3756 13.8333 52.8918 13.8333H87.7251C89.2413 13.8333 90.4751 15.0672 90.4751 16.5833V22.1475C87.3695 22.5948 84.9751 25.2733 84.9751 28.5ZM76.2668 25.75H74.4151L71.2453 21.79C70.7283 20.8403 69.7346 20.25 68.6511 20.25H65.2961L67.4668 25.75H66.8215L65.1513 24.606C64.121 23.5665 62.1978 23.8158 61.4608 25.0863C61.0373 25.816 61.0336 26.6923 61.5488 27.565L64.6563 31.2518H67.4411L65.3016 36.7518H68.6841C69.7658 36.7518 70.7595 36.1633 71.1921 35.3402L74.4206 31.2518H79.477V28.5018C79.477 26.883 78.157 25.7518 76.2686 25.7518L76.2668 25.75ZM77.6418 29.4167H73.5315L69.6686 34.3318C69.4725 34.693 69.0948 34.9167 68.6841 34.9167H67.9838L70.1233 29.4167H65.507L63.0448 26.5182C62.9128 26.2872 63.0026 26.0837 63.0448 26.0067C63.1126 25.8912 63.3198 25.409 63.9761 26.0067L66.2476 27.5852H70.1563L67.9856 22.0852H68.6475C69.06 22.0852 69.4358 22.3088 69.72 22.802L73.5296 27.5852H76.2631C76.9268 27.5852 77.6381 27.8272 77.6381 28.5018V29.4185L77.6418 29.4167ZM55.6418 15.6667H57.4751V19.3333H55.6418V15.6667ZM55.6418 23H57.4751V26.6667H55.6418V23ZM55.6418 30.3333H57.4751V34H55.6418V30.3333ZM55.6418 37.6667H57.4751V41.3333H55.6418V37.6667Z" fill="white"/>
</g>
<g clip-path="url(#clip1_156_51)">
<path d="M31.4751 18.8334H25.9751C22.9428 18.8334 20.4751 21.301 20.4751 24.3334V26.1667H18.1321C18.4475 25.6259 18.6418 25.0044 18.6418 24.3334C18.6418 22.3112 16.9973 20.6667 14.9751 20.6667C12.953 20.6667 11.3085 22.3112 11.3085 24.3334C11.3085 25.0044 11.5028 25.6259 11.8181 26.1667H9.47514V19.75C9.47514 19.244 9.06447 18.8334 8.55847 18.8334C8.05247 18.8334 7.64181 19.244 7.64181 19.75V43.5834C7.64181 44.0894 8.05247 44.5 8.55847 44.5C9.06447 44.5 9.47514 44.0894 9.47514 43.5834V40.8334H35.1418V43.5834C35.1418 44.0894 35.5525 44.5 36.0585 44.5C36.5645 44.5 36.9751 44.0894 36.9751 43.5834V24.3334C36.9751 21.301 34.5075 18.8334 31.4751 18.8334ZM22.3085 24.3334C22.3085 22.3112 23.953 20.6667 25.9751 20.6667H31.4751C33.4973 20.6667 35.1418 22.3112 35.1418 24.3334V26.1667H22.3085V24.3334ZM13.1418 24.3334C13.1418 23.3232 13.965 22.5 14.9751 22.5C15.9853 22.5 16.8085 23.3232 16.8085 24.3334C16.8085 25.3435 15.9853 26.1667 14.9751 26.1667C13.965 26.1667 13.1418 25.3435 13.1418 24.3334ZM9.47514 28H35.1418V31.6667H26.8918C23.8595 31.6667 21.3918 34.1344 21.3918 37.1667V39H18.1321C18.4475 38.4592 18.6418 37.8377 18.6418 37.1667C18.6418 35.1445 16.9973 33.5 14.9751 33.5C12.953 33.5 11.3085 35.1445 11.3085 37.1667C11.3085 37.8377 11.5028 38.4592 11.8181 39H9.47514V28ZM13.1418 37.1667C13.1418 36.1565 13.965 35.3334 14.9751 35.3334C15.9853 35.3334 16.8085 36.1565 16.8085 37.1667C16.8085 38.1769 15.9853 39 14.9751 39C13.965 39 13.1418 38.1769 13.1418 37.1667ZM23.2251 39V37.1667C23.2251 35.1445 24.8696 33.5 26.8918 33.5H35.1418V39H23.2251ZM44.3085 18.0285V43.5834C44.3085 44.0894 43.8978 44.5 43.3918 44.5C42.8858 44.5 42.4751 44.0894 42.4751 43.5834V18.0285C42.4751 15.8909 41.4191 13.9035 39.6481 12.71L25.8981 3.43152C23.7183 1.95936 20.9005 1.95936 18.7188 3.43152L4.96881 12.71C3.19781 13.9054 2.14181 15.8927 2.14181 18.0285V43.5834C2.14181 44.0894 1.73114 44.5 1.22514 44.5C0.719138 44.5 0.308472 44.0894 0.308472 43.5834V18.0285C0.308472 15.2822 1.66697 12.7247 3.94397 11.1902L17.694 1.91169C20.499 0.0215219 24.1198 0.0233553 26.923 1.91169L40.673 11.1902C42.95 12.7247 44.3085 15.2822 44.3085 18.0285Z" fill="white"/>
</g>
<defs>
<clipPath id="clip0_156_51">
<rect width="44" height="44" fill="white" transform="translate(48.3085 6.5)"/>
</clipPath>
<clipPath id="clip1_156_51">
<rect width="44" height="44" fill="white" transform="translate(0.308472 0.5)"/>
</clipPath>
</defs>
</svg>
