<svg width="45" height="33" viewBox="0 0 45 33" fill="none" xmlns="http://www.w3.org/2000/svg">
<path d="M43.3918 11.9167H44.3085V4.58333C44.3085 2.05517 42.2533 0 39.7251 0H4.89181C2.36364 0 0.308472 2.05517 0.308472 4.58333V28.4167C0.308472 30.9448 2.36364 33 4.89181 33H39.7251C42.2533 33 44.3085 30.9448 44.3085 28.4167V21.0833H43.3918C40.8636 21.0833 38.8085 19.0282 38.8085 16.5C38.8085 13.9718 40.8636 11.9167 43.3918 11.9167ZM36.9751 16.5C36.9751 19.7267 39.3695 22.4052 42.4751 22.8525V28.4167C42.4751 29.9328 41.2413 31.1667 39.7251 31.1667H4.89181C3.37564 31.1667 2.14181 29.9328 2.14181 28.4167V4.58333C2.14181 3.06717 3.37564 1.83333 4.89181 1.83333H39.7251C41.2413 1.83333 42.4751 3.06717 42.4751 4.58333V10.1475C39.3695 10.5948 36.9751 13.2733 36.9751 16.5ZM28.2668 13.75H26.4151L23.2453 9.79C22.7283 8.84033 21.7346 8.25 20.6511 8.25H17.2961L19.4668 13.75H18.8215L17.1513 12.606C16.121 11.5665 14.1978 11.8158 13.4608 13.0863C13.0373 13.816 13.0336 14.6923 13.5488 15.565L16.6563 19.2518H19.4411L17.3016 24.7518H20.6841C21.7658 24.7518 22.7595 24.1633 23.1921 23.3402L26.4206 19.2518H31.477V16.5018C31.477 14.883 30.157 13.7518 28.2686 13.7518L28.2668 13.75ZM29.6418 17.4167H25.5315L21.6686 22.3318C21.4725 22.693 21.0948 22.9167 20.6841 22.9167H19.9838L22.1233 17.4167H17.507L15.0448 14.5182C14.9128 14.2872 15.0026 14.0837 15.0448 14.0067C15.1126 13.8912 15.3198 13.409 15.9761 14.0067L18.2476 15.5852H22.1563L19.9856 10.0852H20.6475C21.06 10.0852 21.4358 10.3088 21.72 10.802L25.5296 15.5852H28.2631C28.9268 15.5852 29.6381 15.8272 29.6381 16.5018V17.4185L29.6418 17.4167ZM7.64181 3.66667H9.47514V7.33333H7.64181V3.66667ZM7.64181 11H9.47514V14.6667H7.64181V11ZM7.64181 18.3333H9.47514V22H7.64181V18.3333ZM7.64181 25.6667H9.47514V29.3333H7.64181V25.6667Z" fill="white"/>
</svg>
