<svg width="43" height="42" viewBox="0 0 43 42" fill="none" xmlns="http://www.w3.org/2000/svg">
<path d="M0.866089 4.875V18H18.3661V0.5H5.24109C2.82959 0.5 0.866089 2.4635 0.866089 4.875ZM16.6161 16.25H2.61609V4.875C2.61609 3.42775 3.79384 2.25 5.24109 2.25H16.6161V16.25ZM39.3661 4.875C39.3661 2.4635 37.4026 0.5 34.9911 0.5H21.8661V18H39.3661V4.875ZM37.6161 16.25H23.6161V2.25H34.9911C36.4383 2.25 37.6161 3.42775 37.6161 4.875V16.25ZM0.866089 34.625C0.866089 37.0365 2.82959 39 5.24109 39H18.3661V21.5H0.866089V34.625ZM2.61609 23.25H16.6161V37.25H5.24109C3.79384 37.25 2.61609 36.0723 2.61609 34.625V23.25ZM42.1748 40.5715L35.8661 34.2627C36.9441 32.9152 37.6161 31.23 37.6161 29.375C37.6161 25.0333 34.0828 21.5 29.7411 21.5C25.3993 21.5 21.8661 25.0333 21.8661 29.375C21.8661 33.7168 25.3993 37.25 29.7411 37.25C31.5961 37.25 33.2813 36.578 34.6288 35.5L40.9376 41.8088L42.1748 40.5715ZM29.7411 35.5C26.3636 35.5 23.6161 32.7525 23.6161 29.375C23.6161 25.9975 26.3636 23.25 29.7411 23.25C33.1186 23.25 35.8661 25.9975 35.8661 29.375C35.8661 32.7525 33.1186 35.5 29.7411 35.5Z" fill="black"/>
</svg>
