<svg width="32" height="32" viewBox="0 0 32 32" fill="none" xmlns="http://www.w3.org/2000/svg">
<path d="M1.33333 16H0C0 10.8546 4.18667 6.66664 9.33333 6.66664H30.3693L25.348 1.6453L26.2907 0.702637L31.3467 5.75864C32.2147 6.62664 32.2147 8.03864 31.3467 8.90664L26.2907 13.9626L25.348 13.02L30.3693 7.99864H9.33333C4.92133 7.99864 1.33333 11.5866 1.33333 15.9986V16ZM30.6667 16C30.6667 20.412 27.0787 24 22.6667 24H1.63067L6.652 18.9786L5.70933 18.036L0.652 23.092C-0.216 23.96 -0.216 25.372 0.652 26.24L5.708 31.296L6.65067 30.3533L1.62933 25.332H22.6653C27.812 25.332 31.9987 21.144 31.9987 15.9986H30.6653L30.6667 16Z" fill="#272A3B"/>
</svg>
