<svg width="28" height="28" viewBox="0 0 28 28" fill="none" xmlns="http://www.w3.org/2000/svg">
<path d="M19.8333 0C15.2542 0 11.6667 2.04983 11.6667 4.66667V9.77433C10.6097 9.49433 9.42783 9.33333 8.16667 9.33333C3.5875 9.33333 0 11.3832 0 14V23.3333C0 25.9502 3.5875 28 8.16667 28C12.7458 28 16.3333 25.9502 16.3333 23.3333V22.8842C17.4218 23.1735 18.6142 23.3333 19.8333 23.3333C24.4125 23.3333 28 21.2835 28 18.6667V4.66667C28 2.04983 24.4125 0 19.8333 0ZM26.8333 14C26.8333 15.897 23.6273 17.5 19.8333 17.5C18.5955 17.5 17.3997 17.3238 16.3333 17.0053V14C16.3333 13.8472 16.3182 13.6967 16.2948 13.5485C17.3892 13.8437 18.5908 14 19.8333 14C22.8445 14 25.4182 13.111 26.8333 11.76V14ZM1.16667 16.4267C2.58183 17.7777 5.1555 18.6667 8.16667 18.6667C11.1778 18.6667 13.7515 17.7777 15.1667 16.4267V18.6667C15.1667 20.5637 11.9607 22.1667 8.16667 22.1667C4.37267 22.1667 1.16667 20.5637 1.16667 18.6667V16.4267ZM19.8333 1.16667C23.6273 1.16667 26.8333 2.76967 26.8333 4.66667C26.8333 6.56367 23.6273 8.16667 19.8333 8.16667C16.0393 8.16667 12.8333 6.56367 12.8333 4.66667C12.8333 2.76967 16.0393 1.16667 19.8333 1.16667ZM12.8333 7.09333C14.2485 8.44433 16.8222 9.33333 19.8333 9.33333C22.8445 9.33333 25.4182 8.44433 26.8333 7.09333V9.33333C26.8333 11.2303 23.6273 12.8333 19.8333 12.8333C18.3202 12.8333 16.8805 12.5848 15.6613 12.1182C15.057 11.3155 14.0747 10.6365 12.8333 10.1488V7.09333ZM8.16667 10.5C11.9607 10.5 15.1667 12.103 15.1667 14C15.1667 15.897 11.9607 17.5 8.16667 17.5C4.37267 17.5 1.16667 15.897 1.16667 14C1.16667 12.103 4.37267 10.5 8.16667 10.5ZM8.16667 26.8333C4.37267 26.8333 1.16667 25.2303 1.16667 23.3333V21.0933C2.58183 22.4443 5.1555 23.3333 8.16667 23.3333C11.1778 23.3333 13.7515 22.4443 15.1667 21.0933V23.3333C15.1667 25.2303 11.9607 26.8333 8.16667 26.8333ZM19.8333 22.1667C18.6002 22.1667 17.3997 21.9928 16.3333 21.6743V18.2187C17.4207 18.508 18.6118 18.6655 19.8333 18.6655C22.8445 18.6655 25.4182 17.7765 26.8333 16.4255V18.6655C26.8333 20.5625 23.6273 22.1667 19.8333 22.1667Z" fill="#272A3B"/>
</svg>
