<svg width="28" height="28" viewBox="0 0 28 28" fill="none" xmlns="http://www.w3.org/2000/svg">
<path d="M25.0833 2.33333H21V0H19.8333V2.33333H8.16667V0H7V2.33333H2.91667C1.30667 2.33333 0 3.64 0 5.25V28H28V5.25C28 3.64 26.6933 2.33333 25.0833 2.33333ZM2.91667 3.5H25.0833C26.0517 3.5 26.8333 4.28167 26.8333 5.25V9.33333H1.16667V5.25C1.16667 4.28167 1.94833 3.5 2.91667 3.5ZM19.8333 10.5V15.1667H14.5833V10.5H19.8333ZM13.4167 15.1667H8.16667V10.5H13.4167V15.1667ZM7 15.1667H1.16667V10.5H7V15.1667ZM7 16.3333V21H1.16667V16.3333H7ZM8.16667 16.3333H13.4167V21H8.16667V16.3333ZM13.4167 22.1667V26.8333H8.16667V22.1667H13.4167ZM14.5833 22.1667H19.8333V26.8333H14.5833V22.1667ZM14.5833 21V16.3333H19.8333V21H14.5833ZM21 16.3333H26.8333V21H21V16.3333ZM21 15.1667V10.5H26.8333V15.1667H21ZM1.16667 22.1667H7V26.8333H1.16667V22.1667ZM21 26.8333V22.1667H26.8333V26.8333H21Z" fill="#272A3B"/>
</svg>
