<svg width="25" height="25" viewBox="0 0 25 25" fill="none" xmlns="http://www.w3.org/2000/svg">
<g clip-path="url(#clip0_424_516)">
<path d="M20.0435 0.805664H5.04352C2.56252 0.805664 0.543518 2.82466 0.543518 5.30566V20.3057C0.543518 22.7867 2.56252 24.8057 5.04352 24.8057H20.0435C22.5245 24.8057 24.5435 22.7867 24.5435 20.3057V5.30566C24.5435 2.82466 22.5245 0.805664 20.0435 0.805664ZM23.5435 20.3057C23.5435 22.2357 21.9735 23.8057 20.0435 23.8057H5.04352C3.11352 23.8057 1.54352 22.2357 1.54352 20.3057V5.30566C1.54352 3.37566 3.11352 1.80566 5.04352 1.80566H20.0435C21.9735 1.80566 23.5435 3.37566 23.5435 5.30566V20.3057ZM15.2755 6.53766L6.56852 15.2447C5.90752 15.9047 5.54352 16.7837 5.54352 17.7197V19.3057C5.54352 19.5817 5.76752 19.8057 6.04352 19.8057H7.62952C8.55052 19.8057 9.45252 19.4317 10.1045 18.7807L18.8115 10.0737C19.7865 9.09866 19.7865 7.51266 18.8115 6.53866C17.8685 5.59366 16.2195 5.59366 15.2765 6.53866L15.2755 6.53766ZM9.39652 18.0727C8.93152 18.5387 8.28652 18.8047 7.62852 18.8047H6.54252V17.7187C6.54252 17.0507 6.80252 16.4227 7.27452 15.9507L13.8785 9.34666L15.9995 11.4677L9.39552 18.0717L9.39652 18.0727ZM18.1035 9.36566L16.7075 10.7617L14.5865 8.64066L15.9825 7.24466C16.5485 6.67866 17.5375 6.67866 18.1035 7.24466C18.6885 7.82966 18.6885 8.78066 18.1035 9.36566Z" fill="#2673AB"/>
</g>
<defs>
<clipPath id="clip0_424_516">
<rect width="24" height="24" fill="white" transform="translate(0.543518 0.805664)"/>
</clipPath>
</defs>
</svg>
