<svg width="25" height="24" viewBox="0 0 25 24" fill="none" xmlns="http://www.w3.org/2000/svg">
<path d="M12.6201 24C6.00012 24 0.620117 18.62 0.620117 12C0.620117 5.38 6.00012 0 12.6201 0C19.2401 0 24.6201 5.38 24.6201 12C24.6201 18.62 19.2401 24 12.6201 24ZM12.6201 1C6.55012 1 1.62012 5.93 1.62012 12C1.62012 18.07 6.55012 23 12.6201 23C18.6901 23 23.6201 18.07 23.6201 12C23.6201 5.93 18.6901 1 12.6201 1ZM16.4301 13.21C16.6601 12.87 16.6801 12.44 16.4801 12.08C16.2901 11.72 15.9101 11.5 15.5101 11.5H9.73012C9.73012 11.5 9.65012 11.47 9.64012 11.45C9.62012 11.43 9.61012 11.39 9.59012 11.43L13.0601 4.67L12.1701 4.21L8.66012 11.05C8.56012 11.39 8.62012 11.75 8.83012 12.04C9.04012 12.33 9.37012 12.49 9.73012 12.49H15.5101C15.5101 12.49 15.5801 12.51 15.6001 12.54C15.6201 12.57 15.6201 12.61 15.5701 12.69L12.1701 19.21L13.0601 19.67L16.4301 13.19V13.21Z" fill="#256A9C"/>
</svg>
