<svg width="38" height="39" viewBox="0 0 38 39" fill="none" xmlns="http://www.w3.org/2000/svg">
<path d="M30.8754 38.3795H7.12537C3.19712 38.3795 0.000366211 35.1827 0.000366211 31.2545V15.5177C0.000366211 13.1475 1.17362 10.9387 3.14012 9.61347L15.0151 1.60022C17.4329 -0.0353607 20.5647 -0.0353607 22.9856 1.60022L34.859 9.61347C36.8255 10.9403 37.9988 13.1475 37.9988 15.5177V31.2545C37.9988 35.1827 34.8036 38.3795 30.8754 38.3795ZM19.0004 1.95647C17.9205 1.95647 16.8423 2.27472 15.9018 2.91122L4.0252 10.9229C2.4957 11.9552 1.5837 13.6716 1.5837 15.5161V31.2529C1.5837 34.3087 4.06953 36.7946 7.12537 36.7946H30.8754C33.9312 36.7946 36.417 34.3087 36.417 31.2529V15.5177C36.417 13.6731 35.505 11.9568 33.9755 10.9245L22.1005 2.91122C21.1585 2.27631 20.0802 1.95647 19.0004 1.95647Z" fill="#272A3B"/>
</svg>
