<svg width="43" height="43" viewBox="0 0 43 43" fill="none" xmlns="http://www.w3.org/2000/svg">
<path d="M34.7737 7.5H26.8987V5.75C26.8987 2.8555 24.5432 0.5 21.6487 0.5C18.7542 0.5 16.3987 2.8555 16.3987 5.75V7.5H8.52368C4.18193 7.5 0.648682 11.0332 0.648682 15.375V34.625C0.648682 38.9668 4.18193 42.5 8.52368 42.5H34.7737C39.1154 42.5 42.6487 38.9668 42.6487 34.625V15.375C42.6487 11.0332 39.1154 7.5 34.7737 7.5ZM18.1487 5.75C18.1487 3.81975 19.7184 2.25 21.6487 2.25C23.5789 2.25 25.1487 3.81975 25.1487 5.75V11.875C25.1487 12.3562 24.7567 12.75 24.2737 12.75H19.0237C18.5407 12.75 18.1487 12.3562 18.1487 11.875V5.75ZM40.8987 34.625C40.8987 38.0025 38.1512 40.75 34.7737 40.75H8.52368C5.14618 40.75 2.39868 38.0025 2.39868 34.625V15.375C2.39868 11.9975 5.14618 9.25 8.52368 9.25H16.3987V11.875C16.3987 13.3223 17.5764 14.5 19.0237 14.5H24.2737C25.7209 14.5 26.8987 13.3223 26.8987 11.875V9.25H34.7737C38.1512 9.25 40.8987 11.9975 40.8987 15.375V34.625ZM21.6487 28.5C24.5432 28.5 26.8987 26.1445 26.8987 23.25C26.8987 20.3555 24.5432 18 21.6487 18C18.7542 18 16.3987 20.3555 16.3987 23.25C16.3987 26.1445 18.7542 28.5 21.6487 28.5ZM21.6487 19.75C23.5789 19.75 25.1487 21.3197 25.1487 23.25C25.1487 25.1803 23.5789 26.75 21.6487 26.75C19.7184 26.75 18.1487 25.1803 18.1487 23.25C18.1487 21.3197 19.7184 19.75 21.6487 19.75ZM30.3724 37.04C30.4879 37.509 30.2027 37.9832 29.7337 38.0988C29.6619 38.1163 29.5919 38.125 29.5219 38.125C29.1299 38.125 28.7729 37.859 28.6732 37.46C27.8874 34.296 24.9334 32 21.6469 32C18.3604 32 15.4064 34.296 14.6207 37.46C14.5034 37.929 14.0274 38.2108 13.5602 38.0988C13.0912 37.9832 12.8059 37.5072 12.9214 37.04C13.8979 33.106 17.5677 30.25 21.6452 30.25C25.7227 30.25 29.3924 33.106 30.3689 37.04H30.3724Z" fill="#272A3B"/>
</svg>
