<svg width="39" height="39" viewBox="0 0 39 39" fill="none" xmlns="http://www.w3.org/2000/svg">
<path d="M19.7504 0.375C9.27345 0.375 0.750366 8.89808 0.750366 19.375C0.750366 29.8519 9.27345 38.375 19.7504 38.375C30.2273 38.375 38.7504 29.8519 38.7504 19.375C38.7504 8.89808 30.2273 0.375 19.7504 0.375ZM11.8337 34.8869V33.625C11.8337 29.2598 15.3851 25.7083 19.7504 25.7083C24.1156 25.7083 27.667 29.2598 27.667 33.625V34.8869C25.2904 36.1045 22.5988 36.7917 19.7504 36.7917C16.902 36.7917 14.2103 36.1045 11.8337 34.8869ZM29.2504 33.9654V33.625C29.2504 28.3857 24.9896 24.125 19.7504 24.125C14.5111 24.125 10.2504 28.3857 10.2504 33.625V33.9654C5.4877 30.8542 2.3337 25.4756 2.3337 19.375C2.3337 9.77208 10.1474 1.95833 19.7504 1.95833C29.3533 1.95833 37.167 9.77208 37.167 19.375C37.167 25.4756 34.013 30.8542 29.2504 33.9654ZM19.7504 8.29167C16.2575 8.29167 13.417 11.1322 13.417 14.625C13.417 18.1178 16.2575 20.9583 19.7504 20.9583C23.2432 20.9583 26.0837 18.1178 26.0837 14.625C26.0837 11.1322 23.2432 8.29167 19.7504 8.29167ZM19.7504 19.375C17.1315 19.375 15.0004 17.2438 15.0004 14.625C15.0004 12.0062 17.1315 9.875 19.7504 9.875C22.3692 9.875 24.5004 12.0062 24.5004 14.625C24.5004 17.2438 22.3692 19.375 19.7504 19.375Z" fill="#272A3B"/>
</svg>
