<svg width="24" height="24" viewBox="0 0 24 24" fill="none" xmlns="http://www.w3.org/2000/svg">
<path d="M13.0801 9.527e-07L16.6411 1.26401e-06L13.591 9L18.0272 9L19.2637 7.121C19.7304 6.418 20.5123 6 21.3563 6L23.9849 6L21.9806 12L24 18L21.3694 18C20.5253 18 19.7434 17.582 19.2777 16.88L18.0282 15L13.591 15L16.6411 24L13.0801 24C12.1617 24 11.3177 23.5 10.878 22.697L6.57532 15L3.14479 15C1.60817 15 0.273293 13.925 0.0404425 12.5C-0.104085 11.619 0.142818 10.729 0.715911 10.057C1.289 9.385 2.12506 9 3.0103 9L6.57532 9L10.8801 1.299C11.3187 0.498999 12.1617 8.72415e-07 13.0801 9.527e-07Z" fill="#272A3B"/>
</svg>
