<svg width="48" height="45" viewBox="0 0 48 45" fill="none" xmlns="http://www.w3.org/2000/svg">
<g filter="url(#filter0_d_66_2713)">
<path d="M1.696 27.988L5.846 30.94C7.792 32.324 10.088 33.03 12.396 33.03C14.052 33.03 15.716 32.666 17.262 31.93L45.126 18.576C47.608 17.39 48.688 14.396 47.532 11.9C46.374 9.39801 43.394 8.31001 40.894 9.46201L40.88 9.47001L32.876 13.334C32.856 13.318 32.836 13.304 32.814 13.29L18.37 3.98401C16.902 2.89201 14.954 2.69601 13.286 3.46401L11.724 4.19801C10.808 4.62801 10.176 5.48401 10.032 6.48601C9.888 7.49001 10.254 8.48801 11.008 9.15601L21.7 18.726L11.58 23.61L5.104 21.232C3.548 20.668 1.802 21.164 0.764 22.49C0.15 23.276 -0.106 24.268 0.042 25.284C0.2 26.368 0.8 27.352 1.696 27.988ZM12.338 7.66401C12.082 7.43601 11.962 7.11201 12.01 6.77201C12.058 6.43201 12.264 6.15401 12.574 6.01001L14.13 5.28001C15.126 4.81401 16.296 4.93401 17.23 5.62801L30.768 14.352L23.646 17.79L12.338 7.66401ZM2.338 23.72C2.702 23.258 3.242 23 3.796 23C4.004 23 4.212 23.038 4.414 23.112L11.288 25.636C11.542 25.73 11.824 25.714 12.068 25.596L41.742 11.276C43.238 10.588 45.024 11.24 45.72 12.74C46.418 14.248 45.764 16.056 44.264 16.772L16.4 30.126C13.356 31.576 9.756 31.266 7.006 29.312L2.856 26.36C2.404 26.04 2.102 25.542 2.022 24.996C1.954 24.526 2.066 24.072 2.342 23.72H2.338ZM48 44C48 44.552 47.552 45 47 45H1C0.448 45 0 44.552 0 44C0 43.448 0.448 43 1 43H47C47.552 43 48 43.448 48 44Z" fill="black"/>
</g>
<defs>
<filter id="filter0_d_66_2713" x="-2.8" y="0.200732" width="53.6" height="47.5993" filterUnits="userSpaceOnUse" color-interpolation-filters="sRGB">
<feFlood flood-opacity="0" result="BackgroundImageFix"/>
<feColorMatrix in="SourceAlpha" type="matrix" values="0 0 0 0 0 0 0 0 0 0 0 0 0 0 0 0 0 0 127 0" result="hardAlpha"/>
<feOffset/>
<feGaussianBlur stdDeviation="1.4"/>
<feComposite in2="hardAlpha" operator="out"/>
<feColorMatrix type="matrix" values="0 0 0 0 1 0 0 0 0 1 0 0 0 0 1 0 0 0 0.25 0"/>
<feBlend mode="normal" in2="BackgroundImageFix" result="effect1_dropShadow_66_2713"/>
<feBlend mode="normal" in="SourceGraphic" in2="effect1_dropShadow_66_2713" result="shape"/>
</filter>
</defs>
</svg>
