<svg width="20" height="20" viewBox="0 0 20 20" fill="none" xmlns="http://www.w3.org/2000/svg">
<path d="M0.765378 9.45674C0.465526 9.45674 0.222168 9.70009 0.222168 9.99995C0.222168 10.2998 0.465526 10.5432 0.765378 10.5432H9.45674V19.2345C9.45674 19.5344 9.70009 19.7777 9.99995 19.7777C10.2998 19.7777 10.5432 19.5344 10.5432 19.2345V10.5432H19.2345C19.5344 10.5432 19.7777 10.2998 19.7777 9.99995C19.7777 9.70009 19.5344 9.45674 19.2345 9.45674H10.5432V0.765378C10.5432 0.465526 10.2998 0.222168 9.99995 0.222168C9.70009 0.222168 9.45674 0.465526 9.45674 0.765378V9.45674H0.765378Z" fill="white"/>
</svg>
