<svg width="38" height="38" viewBox="0 0 38 38" fill="none" xmlns="http://www.w3.org/2000/svg">
<path d="M0.000366211 4.45833V16.3333H15.8337V0.5H3.9587C1.77687 0.5 0.000366211 2.2765 0.000366211 4.45833ZM14.2504 14.75H1.5837V4.45833C1.5837 3.14892 2.64928 2.08333 3.9587 2.08333H14.2504V14.75ZM34.8337 4.45833C34.8337 2.2765 33.0572 0.5 30.8754 0.5H19.0004V16.3333H34.8337V4.45833ZM33.2504 14.75H20.5837V2.08333H30.8754C32.1848 2.08333 33.2504 3.14892 33.2504 4.45833V14.75ZM0.000366211 31.375C0.000366211 33.5568 1.77687 35.3333 3.9587 35.3333H15.8337V19.5H0.000366211V31.375ZM1.5837 21.0833H14.2504V33.75H3.9587C2.64928 33.75 1.5837 32.6844 1.5837 31.375V21.0833ZM37.375 36.7552L31.667 31.0472C32.6424 29.8281 33.2504 28.3033 33.2504 26.625C33.2504 22.6968 30.0536 19.5 26.1254 19.5C22.1971 19.5 19.0004 22.6968 19.0004 26.625C19.0004 30.5533 22.1971 33.75 26.1254 33.75C27.8037 33.75 29.3284 33.142 30.5476 32.1667L36.2555 37.8746L37.375 36.7552ZM26.1254 32.1667C23.0695 32.1667 20.5837 29.6808 20.5837 26.625C20.5837 23.5692 23.0695 21.0833 26.1254 21.0833C29.1812 21.0833 31.667 23.5692 31.667 26.625C31.667 29.6808 29.1812 32.1667 26.1254 32.1667Z" 
fill="#367eb2"/>
</svg>
