<svg width="38" height="39" viewBox="0 0 38 39" fill="none" xmlns="http://www.w3.org/2000/svg">
<g clip-path="url(#clip0_494_136)">
<path d="M0.000366211 4.08333V15.9583H15.8337V0.125H3.9587C1.77687 0.125 0.000366211 1.9015 0.000366211 4.08333ZM14.2504 14.375H1.5837V4.08333C1.5837 2.77392 2.64928 1.70833 3.9587 1.70833H14.2504V14.375ZM34.8337 4.08333C34.8337 1.9015 33.0572 0.125 30.8754 0.125H19.0004V15.9583H34.8337V4.08333ZM33.2504 14.375H20.5837V1.70833H30.8754C32.1848 1.70833 33.2504 2.77392 33.2504 4.08333V14.375ZM0.000366211 31C0.000366211 33.1818 1.77687 34.9583 3.9587 34.9583H15.8337V19.125H0.000366211V31ZM1.5837 20.7083H14.2504V33.375H3.9587C2.64928 33.375 1.5837 32.3094 1.5837 31V20.7083ZM37.375 36.3802L31.667 30.6722C32.6424 29.4531 33.2504 27.9283 33.2504 26.25C33.2504 22.3218 30.0536 19.125 26.1254 19.125C22.1971 19.125 19.0004 22.3218 19.0004 26.25C19.0004 30.1783 22.1971 33.375 26.1254 33.375C27.8037 33.375 29.3284 32.767 30.5476 31.7917L36.2555 37.4996L37.375 36.3802ZM26.1254 31.7917C23.0695 31.7917 20.5837 29.3058 20.5837 26.25C20.5837 23.1942 23.0695 20.7083 26.1254 20.7083C29.1812 20.7083 31.667 23.1942 31.667 26.25C31.667 29.3058 29.1812 31.7917 26.1254 31.7917Z" fill="#272A3B"/>
</g>
<defs>
<clipPath id="clip0_494_136">
<rect width="38" height="38" fill="white" transform="translate(0.000366211 0.125)"/>
</clipPath>
</defs>
</svg>
