<svg width="43" height="43" viewBox="0 0 43 43" fill="none" xmlns="http://www.w3.org/2000/svg">
<path d="M14.3661 20.0237C16.2963 20.0237 17.8661 18.454 17.8661 16.5237C17.8661 14.5935 16.2963 13.0237 14.3661 13.0237C12.4358 13.0237 10.8661 14.5935 10.8661 16.5237C10.8661 18.454 12.4358 20.0237 14.3661 20.0237ZM14.3661 14.7737C15.3321 14.7737 16.1161 15.5595 16.1161 16.5237C16.1161 17.488 15.3321 18.2737 14.3661 18.2737C13.4001 18.2737 12.6161 17.488 12.6161 16.5237C12.6161 15.5595 13.4001 14.7737 14.3661 14.7737ZM28.3661 13.0237C26.4358 13.0237 24.8661 14.5935 24.8661 16.5237C24.8661 18.454 26.4358 20.0237 28.3661 20.0237C30.2963 20.0237 31.8661 18.454 31.8661 16.5237C31.8661 14.5935 30.2963 13.0237 28.3661 13.0237ZM28.3661 18.2737C27.4001 18.2737 26.6161 17.488 26.6161 16.5237C26.6161 15.5595 27.4001 14.7737 28.3661 14.7737C29.3321 14.7737 30.1161 15.5595 30.1161 16.5237C30.1161 17.488 29.3321 18.2737 28.3661 18.2737ZM30.7688 25.566C31.0908 25.9265 31.0593 26.4777 30.6988 26.8015C30.5291 26.952 26.4743 30.5237 21.3661 30.5237C16.2578 30.5237 12.2031 26.952 12.0333 26.8015C11.6728 26.4795 11.6413 25.9265 11.9633 25.566C12.2836 25.2037 12.8348 25.1705 13.1988 25.4942C13.2356 25.5275 16.9386 28.772 21.3661 28.772C25.7936 28.772 29.4966 25.5275 29.5333 25.4942C29.8956 25.1705 30.4468 25.202 30.7688 25.566ZM39.7411 16.5237H38.8661V13.8987C38.8661 9.55699 35.3328 6.02374 30.9911 6.02374H22.2411V1.64874C22.2411 1.16574 21.8491 0.773743 21.3661 0.773743C20.8831 0.773743 20.4911 1.16574 20.4911 1.64874V6.02374H11.7411C7.39934 6.02374 3.86609 9.55699 3.86609 13.8987V16.5237H2.99109C1.54384 16.5237 0.366089 17.7015 0.366089 19.1487V26.1487C0.366089 27.596 1.54384 28.7737 2.99109 28.7737H3.86609V29.6487C3.86609 33.9905 7.39934 37.5237 11.7411 37.5237H27.2268L34.3826 42.2942C34.8656 42.6162 35.4238 42.779 35.9821 42.779C36.4493 42.779 36.9166 42.6652 37.3436 42.4377C38.2833 41.9337 38.8661 40.9607 38.8661 39.895V28.7737H39.7411C41.1883 28.7737 42.3661 27.596 42.3661 26.1487V19.1487C42.3661 17.7015 41.1883 16.5237 39.7411 16.5237ZM2.99109 27.0237C2.50984 27.0237 2.11609 26.6317 2.11609 26.1487V19.1487C2.11609 18.6657 2.50984 18.2737 2.99109 18.2737H3.86609V27.0237H2.99109ZM37.1161 39.895C37.1161 40.3202 36.8921 40.6947 36.5176 40.8942C36.1378 41.0955 35.7038 41.071 35.3521 40.8382L27.9758 35.9207C27.8323 35.8245 27.6626 35.7737 27.4911 35.7737H11.7411C8.36359 35.7737 5.61609 33.0262 5.61609 29.6487V13.8987C5.61609 10.5212 8.36359 7.77374 11.7411 7.77374H30.9911C34.3686 7.77374 37.1161 10.5212 37.1161 13.8987V39.895ZM40.6161 26.1487C40.6161 26.6317 40.2223 27.0237 39.7411 27.0237H38.8661V18.2737H39.7411C40.2223 18.2737 40.6161 18.6657 40.6161 19.1487V26.1487Z" fill="black"/>
</svg>
