<svg width="49" height="49" viewBox="0 0 49 49" fill="none" xmlns="http://www.w3.org/2000/svg">
<path d="M31.5 12.5H17.5C12.538 12.5 8.5 16.538 8.5 21.5V35.5C8.5 39.322 11.582 42.44 15.392 42.498L12.648 46.978C12.358 47.448 12.508 48.064 12.978 48.354C13.142 48.454 13.322 48.5 13.5 48.5C13.836 48.5 14.166 48.33 14.354 48.022L17.736 42.5H31.268L34.65 48.022C34.838 48.33 35.166 48.5 35.504 48.5C35.682 48.5 35.862 48.454 36.026 48.354C36.496 48.064 36.646 47.45 36.356 46.978L33.612 42.498C37.422 42.44 40.504 39.322 40.504 35.5V21.5C40.504 16.538 36.466 12.5 31.504 12.5H31.5ZM17.5 14.5H23.5V28.5H10.5V21.5C10.5 17.64 13.64 14.5 17.5 14.5ZM33.5 40.5H15.5C12.744 40.5 10.5 38.258 10.5 35.5V30.5H16.5V33.5C16.5 34.052 16.948 34.5 17.5 34.5C18.052 34.5 18.5 34.052 18.5 33.5V30.5H30.5V33.5C30.5 34.052 30.948 34.5 31.5 34.5C32.052 34.5 32.5 34.052 32.5 33.5V30.5H38.5V35.5C38.5 38.258 36.256 40.5 33.5 40.5ZM38.5 28.5H25.5V14.5H31.5C35.36 14.5 38.5 17.64 38.5 21.5V28.5ZM48.5 24.5V47.5C48.5 48.052 48.052 48.5 47.5 48.5C46.948 48.5 46.5 48.052 46.5 47.5V24.5C46.5 12.37 36.63 2.5 24.5 2.5C12.37 2.5 2.5 12.37 2.5 24.5V47.5C2.5 48.052 2.052 48.5 1.5 48.5C0.948 48.5 0.5 48.052 0.5 47.5V24.5C0.5 11.266 11.266 0.5 24.5 0.5C37.734 0.5 48.5 11.266 48.5 24.5Z" fill="#fff"/>
</svg>
