<svg width="48" height="48" viewBox="0 0 48 48" fill="none" xmlns="http://www.w3.org/2000/svg">
<path d="M43.888 22.23L37.314 20.05C37.11 19.982 36.888 19.982 36.686 20.05L30.112 22.23C27.654 23.046 26 25.334 26 27.926V34.788C26 42.014 33.736 46.448 36.108 47.634L36.556 47.858C36.696 47.928 36.848 47.964 37.004 47.964C37.13 47.964 37.258 47.94 37.38 47.892L37.842 47.704C40.224 46.746 48.002 42.982 48.002 34.788V27.926C48.002 25.334 46.348 23.046 43.888 22.23ZM46 34.786C46 41.724 39.184 45.006 37.092 45.846L37.048 45.866L37.004 45.844C34.892 44.788 28.002 40.866 28.002 34.788V27.926C28.002 26.198 29.104 24.672 30.742 24.13L37.002 22.054L43.262 24.13C44.9 24.672 46.002 26.2 46.002 27.926V34.788L46 34.786ZM16 0C9.382 0 4 5.382 4 12C4 18.618 9.382 24 16 24C22.618 24 28 18.618 28 12C28 5.382 22.618 0 16 0ZM16 22C10.486 22 6 17.514 6 12C6 6.486 10.486 2 16 2C21.514 2 26 6.486 26 12C26 17.514 21.514 22 16 22ZM21.944 30.186C21.758 30.708 21.192 30.978 20.666 30.796C19.172 30.266 17.602 30 16 30C8.282 30 2 36.28 2 44V47C2 47.552 1.552 48 1 48C0.448 48 0 47.552 0 47V44C0 35.178 7.178 28 16 28C17.828 28 19.624 28.306 21.334 28.91C21.854 29.094 22.126 29.666 21.944 30.186Z" fill="black"/>
</svg>
