<svg width="38" height="39" viewBox="0 0 38 39" fill="none" xmlns="http://www.w3.org/2000/svg">
<path d="M30.8754 6.83333H28.4196C28.0206 3.28033 25.0329 0.5 21.3754 0.5H16.6254C12.9679 0.5 9.98012 3.28033 9.58112 6.83333H7.12537C3.19712 6.83333 0.000366211 10.0301 0.000366211 13.9583V31.375C0.000366211 35.3032 3.19712 38.5 7.12537 38.5H30.8754C34.8036 38.5 38.0004 35.3032 38.0004 31.375V13.9583C38.0004 10.0301 34.8036 6.83333 30.8754 6.83333ZM16.6254 2.08333H21.3754C24.1589 2.08333 26.4484 4.15433 26.8363 6.83333H11.1644C11.5524 4.15433 13.8419 2.08333 16.6254 2.08333ZM36.417 31.375C36.417 34.4308 33.9312 36.9167 30.8754 36.9167H28.5004V12.375C28.5004 11.938 28.1457 11.5833 27.7087 11.5833C27.2717 11.5833 26.917 11.938 26.917 12.375V36.9167H11.0837V12.375C11.0837 11.938 10.729 11.5833 10.292 11.5833C9.85503 11.5833 9.50037 11.938 9.50037 12.375V36.9167H7.12537C4.06953 36.9167 1.5837 34.4308 1.5837 31.375V13.9583C1.5837 10.9025 4.06953 8.41667 7.12537 8.41667H30.8754C33.9312 8.41667 36.417 10.9025 36.417 13.9583V31.375Z" fill="#272A3B"/>
</svg>
