<svg width="40" height="48" viewBox="0 0 40 48" fill="none" xmlns="http://www.w3.org/2000/svg">
<path d="M31 0.026001H9C4.038 0.026001 0 4.062 0 9.026V41.026C0 44.886 3.14 48.026 7 48.026H31C35.962 48.026 40 43.988 40 39.026V9.026C40 4.062 35.962 0.026001 31 0.026001ZM2 9.026C2 5.166 5.14 2.026 9 2.026H31C34.86 2.026 38 5.166 38 9.026V34.026H7C5.044 34.026 3.272 34.834 2 36.132V9.026ZM31 46.026H7C4.242 46.026 2 43.784 2 41.026C2 38.268 4.242 36.026 7 36.026H38V39.026C38 42.886 34.86 46.026 31 46.026ZM20 30C26.618 30 32 24.618 32 18C32 11.382 26.618 6 20 6C13.382 6 8 11.382 8 18C8 24.618 13.382 30 20 30ZM10.05 19H14.018C14.144 22.342 14.896 25.216 16.054 27.188C12.788 25.78 10.418 22.68 10.05 19ZM20 8C21.776 8 23.75 11.786 23.978 17H16.022C16.25 11.786 18.224 8 20 8ZM23.978 19C23.75 24.214 21.776 28 20 28C18.224 28 16.25 24.214 16.022 19H23.978ZM23.944 27.188C25.104 25.216 25.856 22.34 25.98 19H29.948C29.58 22.682 27.208 25.78 23.942 27.188H23.944ZM29.95 17H25.982C25.856 13.658 25.104 10.784 23.946 8.812C27.212 10.22 29.582 13.32 29.95 17ZM16.056 8.812C14.896 10.784 14.144 13.66 14.02 17H10.052C10.42 13.318 12.792 10.22 16.058 8.812H16.056Z" fill="#272A3B"/>
</svg>
