<svg width="44" height="31" viewBox="0 0 44 31" fill="none" xmlns="http://www.w3.org/2000/svg">
<path d="M42.8323 4.81221C42.3292 2.91831 40.8473 1.42543 38.9643 0.918694C35.5538 3.25943e-07 21.8737 0 21.8737 0C21.8737 0 8.19351 3.25943e-07 4.78122 0.918694C2.90008 1.42543 1.41814 2.91649 0.915048 4.81221C0 8.24637 0 15.41 0 15.41C0 15.41 0 22.5736 0.915048 26.0078C1.41814 27.9017 2.90008 29.3946 4.78304 29.9013C8.19351 30.82 21.8737 30.82 21.8737 30.82C21.8737 30.82 35.5538 30.82 38.9661 29.9013C40.8473 29.3946 42.3292 27.9035 42.8341 26.0078C43.7473 22.5736 43.7473 15.41 43.7473 15.41C43.7473 15.41 43.7473 8.24637 42.8323 4.81221ZM17.4005 21.9156V8.9044L28.8331 15.41L17.4005 21.9156Z" fill="#272A3B" fill-opacity="0.5"/>
</svg>
