<svg width="23" height="24" viewBox="0 0 23 24" fill="none" xmlns="http://www.w3.org/2000/svg">
<path d="M20.28 6.88C19.98 5.21 18.53 4 16.83 4H15.8C16.11 3.58 16.3 3.06 16.3 2.5C16.3 1.12 15.18 0 13.8 0H8.8C7.42 0 6.3 1.12 6.3 2.5C6.3 3.06 6.49 3.58 6.8 4H5.77C4.07 4 2.62 5.21 2.32 6.88L0 20H7.31C7.31 22.21 9.1 24 11.31 24C13.52 24 15.31 22.21 15.31 20H22.62L20.28 6.88ZM7.31 2.5C7.31 1.67 7.98 1 8.81 1H13.81C14.64 1 15.31 1.67 15.31 2.5C15.31 3.33 14.64 4 13.81 4H8.81C7.98 4 7.31 3.33 7.31 2.5ZM1.19 19L3.33 7.06C3.54 5.87 4.58 5 5.79 5H16.84C18.05 5 19.09 5.87 19.3 7.06L21.43 19H1.19ZM11.31 23C9.66 23 8.31 21.65 8.31 20H14.31C14.31 21.65 12.96 23 11.31 23Z" fill="#256A9C"/>
</svg>
