<svg width="61" height="56" viewBox="0 0 61 56" fill="none" xmlns="http://www.w3.org/2000/svg">
<path d="M23.9543 2.09199C19.8543 7.29198 16.5543 12.442 14.0543 17.542C11.6543 22.642 10.4043 26.792 10.3043 29.992C11.9043 29.392 13.8043 29.092 16.0043 29.092C19.6043 29.092 22.4543 30.242 24.5543 32.542C26.7543 34.742 27.8543 37.642 27.8543 41.242C27.8543 45.442 26.5543 48.942 23.9543 51.742C21.3543 54.442 18.1043 55.792 14.2043 55.792C10.1043 55.792 6.85435 54.342 4.45435 51.442C2.05435 48.442 0.854346 44.742 0.854346 40.342C0.854346 34.342 2.70435 27.942 6.40435 21.142C10.1043 14.242 15.5043 7.44199 22.6043 0.741985L23.9543 2.09199ZM56.9544 2.09199C52.8543 7.29198 49.5543 12.442 47.0543 17.542C44.6543 22.642 43.4043 26.792 43.3043 29.992C44.9043 29.392 46.8043 29.092 49.0044 29.092C52.6043 29.092 55.4543 30.242 57.5543 32.542C59.7543 34.742 60.8543 37.642 60.8543 41.242C60.8543 45.442 59.5543 48.942 56.9544 51.742C54.3543 54.442 51.1043 55.792 47.2043 55.792C43.1043 55.792 39.8543 54.342 37.4543 51.442C35.0543 48.442 33.8543 44.742 33.8543 40.342C33.8543 34.342 35.7043 27.942 39.4043 21.142C43.1043 14.242 48.5043 7.44199 55.6044 0.741985L56.9544 2.09199Z" fill="white"/>
</svg>
