<svg  width="28" height="28" viewBox="0 0 28 28" fill="none" xmlns="http://www.w3.org/2000/svg">
<path d="M10.5 14C14.3605 14 17.5 10.8605 17.5 7C17.5 3.1395 14.3605 0 10.5 0C6.6395 0 3.5 3.1395 3.5 7C3.5 10.8605 6.6395 14 10.5 14ZM10.5 1.16667C13.7165 1.16667 16.3333 3.7835 16.3333 7C16.3333 10.2165 13.7165 12.8333 10.5 12.8333C7.2835 12.8333 4.66667 10.2165 4.66667 7C4.66667 3.7835 7.2835 1.16667 10.5 1.16667ZM12.25 16.9167C12.25 17.2387 11.9887 17.5 11.6667 17.5H11.0833C5.61517 17.5 1.16667 21.9485 1.16667 27.4167C1.16667 27.7387 0.905333 28 0.583333 28C0.261333 28 0 27.7387 0 27.4167C0 21.3057 4.97233 16.3333 11.0833 16.3333H11.6667C11.9887 16.3333 12.25 16.5947 12.25 16.9167ZM27.8997 19.5522C27.6628 18.9023 27.0387 18.466 26.3468 18.466H23.5492L22.5505 15.659C22.3102 15.0162 21.6883 14.5833 21.0012 14.5833C20.314 14.5833 19.6922 15.0162 19.4495 15.6672L18.4532 18.466H15.6555C14.9648 18.466 14.3418 18.9012 14.1038 19.5475C13.8647 20.1962 14.0583 20.9323 14.595 21.3862L16.8257 23.2015L15.9425 25.8522C15.7337 26.5207 15.9693 27.2522 16.5293 27.6698C16.8128 27.8833 17.1652 28 17.5198 28C17.8488 28 18.1673 27.9032 18.4392 27.7212L21.0152 25.9968L23.6378 27.7048C24.2258 28.0852 24.9912 28.056 25.55 27.629C26.1053 27.2008 26.3293 26.467 26.1065 25.7903L25.1953 23.1922L27.4155 21.3838C27.944 20.9382 28.14 20.202 27.9032 19.5533L27.8997 19.5522ZM26.6677 20.4843L24.1372 22.5458C23.9458 22.701 23.8723 22.9588 23.9552 23.191L24.9993 26.166C25.0647 26.362 24.9993 26.579 24.836 26.7027C24.6692 26.8287 24.444 26.838 24.2713 26.726L21.3267 24.808C21.1318 24.6808 20.8787 24.6832 20.6838 24.8115L17.7882 26.7505C17.6213 26.8613 17.3892 26.8578 17.2282 26.7342C17.0625 26.6117 16.9937 26.3958 17.0532 26.208L18.0588 23.1852C18.1347 22.9553 18.0612 22.701 17.8733 22.5493L15.3393 20.4878C15.1853 20.3572 15.1282 20.1413 15.1993 19.95C15.2693 19.7587 15.4525 19.6315 15.6555 19.6315H18.865C19.1123 19.6315 19.3317 19.4763 19.4145 19.2442L20.5473 16.065C20.6885 15.6858 21.3197 15.694 21.4562 16.0568L22.5913 19.243C22.673 19.4752 22.8935 19.6303 23.1408 19.6303H26.3503C26.5545 19.6303 26.7377 19.7587 26.8077 19.95C26.8777 20.1413 26.8193 20.3583 26.6723 20.4832L26.6677 20.4843Z" fill="#272A3B"/>
</svg>
