<svg width="33" height="33" viewBox="0 0 33 33" fill="none" xmlns="http://www.w3.org/2000/svg">
<path d="M10.7411 16.3187C15.1531 16.3187 18.7411 12.7307 18.7411 8.31873C18.7411 3.90673 15.1531 0.318726 10.7411 0.318726C6.3291 0.318726 2.7411 3.90673 2.7411 8.31873C2.7411 12.7307 6.3291 16.3187 10.7411 16.3187ZM10.7411 1.65206C14.4171 1.65206 17.4078 4.64273 17.4078 8.31873C17.4078 11.9947 14.4171 14.9854 10.7411 14.9854C7.0651 14.9854 4.07443 11.9947 4.07443 8.31873C4.07443 4.64273 7.0651 1.65206 10.7411 1.65206ZM21.4078 25.6521V32.3187H20.0744V25.6521C20.0744 22.7107 17.6824 20.3187 14.7411 20.3187H6.7411C3.79977 20.3187 1.40777 22.7107 1.40777 25.6521V32.3187H0.0744324V25.6521C0.0744324 21.9761 3.0651 18.9854 6.7411 18.9854H14.7411C18.4171 18.9854 21.4078 21.9761 21.4078 25.6521Z" fill="#2673AB"/>
<path d="M32.0744 17.6521V16.3187H20.0744V17.6521H32.0744Z" fill="#2673AB"/>
<path d="M25.4078 22.9854H26.7411V10.9854H25.4078V22.9854Z" fill="#2673AB"/>
</svg>
