<svg width="33" height="33" viewBox="0 0 33 33" fill="none" xmlns="http://www.w3.org/2000/svg">
<path d="M7.5922 8.31873C9.79754 8.31873 11.5922 6.52406 11.5922 4.31873C11.5922 2.11339 9.79754 0.318726 7.5922 0.318726C5.38687 0.318726 3.5922 2.11339 3.5922 4.31873C3.5922 6.52406 5.38687 8.31873 7.5922 8.31873ZM7.5922 1.65206C9.06287 1.65206 10.2589 2.84806 10.2589 4.31873C10.2589 5.78939 9.06287 6.98539 7.5922 6.98539C6.12154 6.98539 4.92554 5.78939 4.92554 4.31873C4.92554 2.84806 6.12154 1.65206 7.5922 1.65206ZM8.25887 12.3187C4.95087 12.3187 2.25887 15.0107 2.25887 18.3187C2.25887 18.6867 1.9602 18.9854 1.5922 18.9854C1.2242 18.9854 0.925537 18.6867 0.925537 18.3187C0.925537 14.2761 4.21487 10.9854 8.25887 10.9854C8.7522 10.9854 9.24554 11.0347 9.7242 11.1307C10.0855 11.2041 10.3189 11.5547 10.2455 11.9174C10.1722 12.2774 9.81487 12.5121 9.4602 12.4387C9.0682 12.3587 8.6642 12.3187 8.25887 12.3187ZM19.5922 8.31873C21.7975 8.31873 23.5922 6.52406 23.5922 4.31873C23.5922 2.11339 21.7975 0.318726 19.5922 0.318726C17.3869 0.318726 15.5922 2.11339 15.5922 4.31873C15.5922 6.52406 17.3869 8.31873 19.5922 8.31873ZM19.5922 1.65206C21.0629 1.65206 22.2589 2.84806 22.2589 4.31873C22.2589 5.78939 21.0629 6.98539 19.5922 6.98539C18.1215 6.98539 16.9255 5.78939 16.9255 4.31873C16.9255 2.84806 18.1215 1.65206 19.5922 1.65206ZM18.9255 10.9854C22.9695 10.9854 26.2589 14.2761 26.2589 18.3187C26.2589 18.6867 25.9602 18.9854 25.5922 18.9854C25.2242 18.9854 24.9255 18.6867 24.9255 18.3187C24.9255 15.0107 22.2335 12.3187 18.9255 12.3187C18.5202 12.3187 18.1162 12.3587 17.7242 12.4387C17.3682 12.5174 17.0122 12.2774 16.9389 11.9174C16.8655 11.5561 17.1002 11.2041 17.4602 11.1307C17.9389 11.0347 18.4322 10.9854 18.9255 10.9854ZM9.5922 17.6521C9.5922 19.8574 11.3869 21.6521 13.5922 21.6521C15.7975 21.6521 17.5922 19.8574 17.5922 17.6521C17.5922 15.4467 15.7975 13.6521 13.5922 13.6521C11.3869 13.6521 9.5922 15.4467 9.5922 17.6521ZM13.5922 14.9854C15.0629 14.9854 16.2589 16.1814 16.2589 17.6521C16.2589 19.1227 15.0629 20.3187 13.5922 20.3187C12.1215 20.3187 10.9255 19.1227 10.9255 17.6521C10.9255 16.1814 12.1215 14.9854 13.5922 14.9854ZM20.9255 31.6521C20.9255 32.0201 20.6269 32.3187 20.2589 32.3187C19.8909 32.3187 19.5922 32.0201 19.5922 31.6521C19.5922 28.3441 16.9002 25.6521 13.5922 25.6521C10.2842 25.6521 7.5922 28.3441 7.5922 31.6521C7.5922 32.0201 7.29354 32.3187 6.92554 32.3187C6.55754 32.3187 6.25887 32.0201 6.25887 31.6521C6.25887 27.6094 9.5482 24.3187 13.5922 24.3187C17.6362 24.3187 20.9255 27.6094 20.9255 31.6521ZM32.9255 26.3187C32.9255 26.6867 32.6269 26.9854 32.2589 26.9854H27.5922V31.6521C27.5922 32.0201 27.2935 32.3187 26.9255 32.3187C26.5575 32.3187 26.2589 32.0201 26.2589 31.6521V26.9854H21.5922C21.2242 26.9854 20.9255 26.6867 20.9255 26.3187C20.9255 25.9507 21.2242 25.6521 21.5922 25.6521H26.2589V20.9854C26.2589 20.6174 26.5575 20.3187 26.9255 20.3187C27.2935 20.3187 27.5922 20.6174 27.5922 20.9854V25.6521H32.2589C32.6269 25.6521 32.9255 25.9507 32.9255 26.3187Z" fill="#2673AB"/>
</svg>
