<svg width="78" height="80" viewBox="0 0 78 80" fill="none" xmlns="http://www.w3.org/2000/svg">
<path d="M38.694 0.794128C17.3575 0.794128 0 18.3812 0 40C0 61.6188 17.3575 79.2059 38.694 79.2059C60.0306 79.2059 77.3881 61.6188 77.3881 40C77.3881 18.3812 60.0306 0.794128 38.694 0.794128ZM22.5715 72.0083V61.2365C22.5715 58.5346 24.7416 56.3358 27.4083 56.3358H49.9798C52.6465 56.3358 54.8165 58.5346 54.8165 61.2365V72.0083C49.9766 74.5208 44.4949 75.9387 38.694 75.9387C32.8931 75.9387 27.4115 74.5208 22.5715 72.0083ZM58.041 70.1069V61.2365C58.041 56.7311 54.4232 53.0686 49.9798 53.0686H27.4083C22.9649 53.0686 19.347 56.7311 19.347 61.2365V70.1069C9.64771 63.6869 3.2245 52.5884 3.2245 40C3.2245 20.1847 19.1374 4.06129 38.694 4.06129C58.2506 4.06129 74.1636 20.1847 74.1636 40C74.1636 52.5884 67.7404 63.6869 58.041 70.1069ZM38.694 20.3971C31.5808 20.3971 25.796 26.2583 25.796 33.4657C25.796 40.673 31.5808 46.5343 38.694 46.5343C45.8073 46.5343 51.592 40.673 51.592 33.4657C51.592 26.2583 45.8073 20.3971 38.694 20.3971ZM38.694 43.2672C33.3607 43.2672 29.0205 38.8696 29.0205 33.4657C29.0205 28.0618 33.3607 23.6642 38.694 23.6642C44.0274 23.6642 48.3675 28.0618 48.3675 33.4657C48.3675 38.8696 44.0274 43.2672 38.694 43.2672Z" fill="#272A3B"/>
</svg>
