<svg width="44" height="44" viewBox="0 0 44 44" fill="none" xmlns="http://www.w3.org/2000/svg">
<path d="M22 0C9.86883 0 0 9.86883 0 22C0 34.1312 9.86883 44 22 44H44V22C44 9.86883 34.1312 0 22 0ZM42.1667 42.1667H22C10.8808 42.1667 1.83333 33.1192 1.83333 22C1.83333 10.8808 10.8808 1.83333 22 1.83333C33.1192 1.83333 42.1667 10.8808 42.1667 22V42.1667ZM29.2178 15.1763C29.7642 18.2948 28.2847 21.4097 25.5347 22.9258C24.1395 23.6958 22.9167 25.9453 22.9167 27.7438V29.3333H21.0833V27.7438C21.0833 25.2872 22.6838 22.4052 24.651 21.3217C26.7465 20.1648 27.83 17.8787 27.412 15.4935C27.0252 13.288 25.212 11.4767 23.0047 11.088C21.3455 10.8038 19.734 11.2218 18.4653 12.2852C17.2168 13.3338 16.5 14.8702 16.5 16.5H14.6667C14.6667 14.3257 15.6218 12.2797 17.2865 10.8827C18.9512 9.48383 21.1493 8.90267 23.3218 9.284C26.2753 9.801 28.699 12.2247 29.2178 15.1782V15.1763ZM23.8333 34.8333C23.8333 35.8453 23.012 36.6667 22 36.6667C20.988 36.6667 20.1667 35.8453 20.1667 34.8333C20.1667 33.8213 20.988 33 22 33C23.012 33 23.8333 33.8213 23.8333 34.8333Z" fill="#272A3B"/>
</svg>
